<svg xmlns="http://www.w3.org/2000/svg" viewBox="0 0 256 256"><path d="M17 37h83l24 24v137H17z" fill="#fff" stroke="#304554" stroke-width="8" stroke-linejoin="round"/><path d="M100 37v25h24M39 88h48M39 116h57M39 144h47" fill="none" stroke="#304554" stroke-width="8" stroke-linecap="round"/><path d="M137 211V59M137 211h104" fill="none" stroke="#304554" stroke-width="8" stroke-linecap="round"/><path d="m115 128 21 14-21 14" fill="none" stroke="#304554" stroke-width="8" stroke-linejoin="round"/><path d="M159 86 179 74l23 28 25-8M153 164l24-31 30 19 28-35" fill="none" stroke="#304554" stroke-width="5" stroke-dasharray="7 7"/><g stroke="#304554" stroke-width="5"><circle cx="159" cy="86" r="10" fill="#CF062E"/><circle cx="179" cy="74" r="10" fill="#91BDE2"/><circle cx="202" cy="102" r="10" fill="#304554"/><circle cx="227" cy="94" r="10" fill="#4B9298"/><circle cx="153" cy="164" r="10" fill="#4B9298"/><circle cx="177" cy="133" r="10" fill="#CF062E"/><circle cx="207" cy="152" r="10" fill="#304554"/><circle cx="235" cy="117" r="10" fill="#D09A08"/></g></svg>
