<svg xmlns="http://www.w3.org/2000/svg" viewBox="0 0 256 256"><rect x="4.5" y="4.5" width="247" height="247" rx="24" fill="#FFFFFF" fill-opacity="0.5" stroke="#3E3348" stroke-width="9"/><g stroke="#3E3348" stroke-width="8" fill="none"><path d="M128 128 194 128M128 128 161 71M128 128 95 71M128 128 62 128M128 128 95 185M128 128 161 185"/><path d="M194 128 161 71 95 71 62 128 95 185 161 185z"/></g><circle cx="194" cy="128" r="13" fill="#F7C74D" stroke="#3E3348" stroke-width="7"/><circle cx="161" cy="71" r="13" fill="#7EB1E8" stroke="#3E3348" stroke-width="7"/><circle cx="95" cy="71" r="13" fill="#8F7FDB" stroke="#3E3348" stroke-width="7"/><circle cx="62" cy="128" r="13" fill="#9FD46C" stroke="#3E3348" stroke-width="7"/><circle cx="95" cy="185" r="13" fill="#7EB1E8" stroke="#3E3348" stroke-width="7"/><circle cx="161" cy="185" r="13" fill="#8F7FDB" stroke="#3E3348" stroke-width="7"/><circle cx="128" cy="128" r="17" fill="#EC6157" stroke="#3E3348" stroke-width="7"/><path d="M226 40v-14M219 33h14" stroke="#F7C74D" stroke-width="7" stroke-linecap="round"/><path d="M32 222v-14M25 215h14" stroke="#EC6157" stroke-width="7" stroke-linecap="round"/></svg>
