<svg xmlns="http://www.w3.org/2000/svg" viewBox="0 0 256 256"><rect x="4.5" y="4.5" width="247" height="247" rx="24" fill="#FFF6E3" stroke="#3E3348" stroke-width="9"/><g stroke="#3E3348" stroke-width="9" stroke-linecap="round"><path d="M100 44v30M128 44v30M156 44v30M100 182v30M128 182v30M156 182v30M44 100h30M44 128h30M44 156h30M182 100h30M182 128h30M182 156h30"/></g><rect x="74" y="74" width="108" height="108" rx="14" fill="#8F7FDB" stroke="#3E3348" stroke-width="9"/><rect x="102" y="102" width="52" height="52" rx="8" fill="#FFE08A" stroke="#3E3348" stroke-width="7"/><path d="M128 114l5 9 9 5-9 5-5 9-5-9-9-5 9-5z" fill="#EC6157"/><path d="M36 40v-14M29 33h14" stroke="#F7C74D" stroke-width="7" stroke-linecap="round"/></svg>
